<?xml version="1.0" encoding="utf-8"?>
<!-- Generator: Adobe Illustrator 21.0.0, SVG Export Plug-In . SVG Version: 6.00 Build 0)  -->
<svg version="1.1" id="Слой_1" xmlns="http://www.w3.org/2000/svg" xmlns:xlink="http://www.w3.org/1999/xlink" x="0px" y="0px"
	 viewBox="0 0 255.1 158.7" style="enable-background:new 0 0 255.1 158.7;" xml:space="preserve">
<style type="text/css">
	.st0{fill:#FFFFFF;}
</style>
<title>kyc-logo</title>
<g id="Layer_1">
	<path class="st0" d="M78.8,53.6c-0.5-2.5-1.2-5-2-7.5c-3.5-9.4-14.9-16.8-26-16.8c-9.6,0-21.3,5-26,16.1c-1.5,3.7-2.6,7.6-3.4,11.5
		c-2.2,9.6-3.7,16.1-16.6,17c0.2,1.3,0.5,2.5,0.8,3.7c15.2-1.3,17.3-10.3,19.5-19.8c0.8-3.7,1.8-7.3,3.2-10.9
		c4-9.5,14.2-13.8,22.5-13.8c9.4,0,19.5,6.4,22.4,14.3c0.8,2.3,1.4,4.6,1.8,7c2,9.2,4.7,21.7,21.4,22.3c0.3-1.2,0.5-2.5,0.8-3.8
		C82.9,72.7,80.8,63,78.8,53.6z"/>
	<path class="st0" d="M82.3,47.6c2.2,9.4,4.1,17.6,9.5,17.6c4.4,0,6.8-4.4,7.5-14.2c0-0.4,0-0.8,0-1.2c-1.1-1.3-2.4-2.5-3.6-3.7
		c-0.2,9.8-1.6,15.3-3.9,15.3S87.4,53,86,46.8c-0.7-3.2-1.5-6.4-2.4-9.4c-1.6-0.8-3.1-1.6-4.8-2.3C80.2,39.1,81.4,43.3,82.3,47.6z"
		/>
	<path class="st0" d="M9.1,65.2c5.3,0,6.7-6,8.3-13c1.3-5.6,2.8-12.2,6.4-17.5c-2,0.9-4.1,1.8-6,2.9c-1.9,4.4-3.3,9-4.2,13.7
		c-1.2,5.4-2.3,10.1-4.6,10.1c-0.2,0-0.5-0.1-0.6-0.3c-1-1-2.1-4.4-2.2-15.1c-1.2,1.2-2.5,2.4-3.6,3.8c0,0.7,0,1.4,0.1,2.1
		c0.5,8.1,1.8,10.6,3.1,12C6.6,64.8,7.8,65.2,9.1,65.2z"/>
	<path class="st0" d="M35.3,55.7c1-10.7,10.2-13.5,15.5-13.5c9.4,0,15.3,6.6,15.5,13c0.1,4,0.1,14.2-3.5,23.7
		c-2,5.1-4.5,10-7.7,14.6c-0.6,0.8-0.5,2,0.4,2.6c0.8,0.6,2,0.5,2.6-0.4c0-0.1,0.1-0.1,0.1-0.2c3.3-4.8,6-9.9,8.1-15.4
		c3.7-9.8,3.9-20,3.7-25.2c-0.4-9.3-8.8-16.6-19.3-16.6c-8.5,0-18.2,5.3-19.3,16.9c-0.8,8.1-4.8,27-24.7,27c0.3,1.3,0.7,2.5,1.1,3.7
		C30.6,85.3,34.6,62.7,35.3,55.7z"/>
	<path class="st0" d="M52.8,57.6c-0.1-1-1-1.8-2.1-1.7c-0.9,0.1-1.7,0.8-1.7,1.8c0.4,20.1-14.1,37.7-35,42.4c0.7,1.2,1.3,2.3,2,3.4
		C37.9,98,53.2,79.1,52.8,57.6z"/>
	<path class="st0" d="M76.1,72.5c-0.5-0.9-1.6-1.3-2.5-0.8c-0.9,0.4-1.3,1.5-0.9,2.4c2,4.7,10.2,11.5,21.5,11.5
		c0.4-1.2,0.7-2.4,1.1-3.7c-0.2,0-0.3-0.1-0.5-0.1C85.4,82,77.8,76.4,76.1,72.5z"/>
	<path class="st0" d="M72.8,81c-0.6-0.8-1.8-1-2.7-0.3c-0.8,0.6-1,1.8-0.3,2.7c5.5,6,12.9,9.9,21,11c0.5-1.2,1-2.4,1.5-3.6
		c-0.1,0-0.3-0.1-0.4-0.1C81.7,89.8,74.1,82.7,72.8,81z"/>
	<path class="st0" d="M68.5,89.6c-0.6-0.8-1.8-1-2.6-0.3c-0.8,0.6-1,1.8-0.4,2.6c1.6,2.1,9.5,8.5,20.9,10.8c0.7-1.1,1.3-2.3,2-3.4
		h-0.1C77.4,97.3,69.7,91.1,68.5,89.6z"/>
	<path class="st0" d="M64.2,97.3c-0.7-0.8-1.9-0.8-2.7-0.1s-0.8,1.9-0.1,2.7c0,0,0.1,0.1,0.1,0.1c0.7,0.7,6.8,6.6,19.2,10.4
		c0.9-1,1.7-2.1,2.5-3.2l-0.2-0.1C73,104.3,66.5,99.6,64.2,97.3z"/>
	<path class="st0" d="M61.7,57.8c-0.1-5.6-4.6-10.1-10.2-10c-4.5-0.1-8.7,2.6-10.5,6.8c-0.7,2-1.1,4.1-1,6.2c0,0.7,0,1.3-0.1,2
		C38.6,77,23.9,91,9.9,91.3c0.5,1.3,1,2.5,1.6,3.7C27,93.8,42.3,78.8,43.7,63c0.1-0.8,0.1-1.6,0.1-2.3c-0.1-1.6,0.2-3.3,0.8-4.8
		c1.2-2.8,4-4.5,7-4.4c3.5,0,6.4,2.8,6.4,6.2c0,28.1-20.8,44.5-38.8,50.2c0.8,1.1,1.7,2.1,2.6,3.1C40.6,104.6,61.7,87.2,61.7,57.8z"
		/>
	<path class="st0" d="M50.8,102.6c-2.8,0-5.3,2-7.4,3.8c-2.9,2.5-9.4,6.1-18.3,8.2c1.1,1.1,2.2,2.1,3.4,3c8.3-2.3,14.4-5.8,17.3-8.4
		c1.2-1,3.3-2.9,4.9-2.9s3.8,1.9,4.9,2.9c3,2.6,10.1,5.5,17.6,8.3c1.1-0.9,2.2-1.9,3.2-2.8c-5.2-1.9-15.2-5.6-18.4-8.3
		C56.1,104.6,53.6,102.6,50.8,102.6z"/>
	<path class="st0" d="M64.9,118.8c-4.6-2.7-10.4-6.1-14.1-6.1c-3.6,0-9.3,3.2-15.3,6.7c-1,0.6-1.9,1.1-2.6,1.5
		c1.2,0.8,2.4,1.6,3.6,2.3l0.9-0.5c4-2.3,10.6-6.2,13.4-6.2s8.4,3.3,12.2,5.6l2.1,1.2c1.3-0.7,2.5-1.5,3.7-2.3h-0.1
		C67.8,120.5,66.5,119.7,64.9,118.8z"/>
	<path class="st0" d="M59.2,125.7c-3.5-2.9-12.2-2.9-16-0.1c-0.2,0.2-0.4,0.4-0.6,0.7c1.4,0.6,2.8,1.2,4.2,1.7s2.7,1,4.1,1.4
		c1.5-0.5,3-1,4.4-1.5s2.9-1.1,4.2-1.7C59.5,125.9,59.4,125.8,59.2,125.7z"/>
	<path class="st0" d="M119.9,85.5V40.2h12v17.2h5.7l10.3-17.2h13.3l-14.3,22.1l14.9,23.2h-13.3l-11-17.5h-5.6v17.5H119.9z"/>
	<path class="st0" d="M180.3,85.5V70l-17.7-29.8h13.6l10,18.7l10-18.7h13.6L192.2,70v15.5L180.3,85.5z"/>
	<path class="st0" d="M239.1,39.2c4.5,0,9,0.9,13.1,2.8v11.3c-3.2-2.4-7.1-3.7-11.1-3.7c-7.2,0-14.3,3.9-14.3,13.8
		c0,8.8,7.1,12.4,14.2,12.4c4.7,0,8.9-1.4,11.5-3.9v11.7c-4.1,1.9-8.6,2.9-13.2,2.8c-12.4,0-24.8-6.8-24.8-23
		C214.6,46.4,226.9,39.2,239.1,39.2z"/>
	<path class="st0" d="M136.1,119h-16.3V94.4h3.2v21.7h13L136.1,119z"/>
	<path class="st0" d="M162.9,97.2h-13.8v7.7H162v2.7h-12.9v8.5h13.9v2.8h-17.2V94.4h17V97.2z"/>
	<path class="st0" d="M195.2,119h-2.1l-0.8-3.1c-1.9,2.5-4.9,3.8-7.9,3.7c-7,0-11.7-5.1-11.7-12.7c0-7.2,4.3-13,11.9-13
		c4.9,0,9.8,2.8,10.3,8.1h-3.2c-0.5-3.2-3.3-5.4-7.1-5.4c-5.4,0-8.7,3.9-8.7,10.2s3.4,10,8.7,10s7.6-3.5,7.7-8.2h-7.9v-2.7h10.8
		L195.2,119z"/>
	<path class="st0" d="M226.9,119h-3.6l-2.7-7.5h-10.4l-2.8,7.5H204l9.7-24.6h3.7L226.9,119z M215.4,97.5l-4.3,11.3h8.4L215.4,97.5z"
		/>
	<path class="st0" d="M252.6,119h-16.3V94.4h3.2v21.7h13L252.6,119z"/>
</g>
</svg>
